<?xml version="1.0" encoding="UTF-8"?>
<svg id="SVGDoc" width="548" height="408" xmlns="http://www.w3.org/2000/svg" version="1.1" xmlns:xlink="http://www.w3.org/1999/xlink" xmlns:avocode="https://avocode.com/" viewBox="0 0 548 408"><defs><linearGradient id="LinearGradient1167" gradientUnits="userSpaceOnUse" x1="368.095" y1="48.06999999999999" x2="368.095" y2="38.81"><stop stop-opacity="0.25" stop-color="#808080" offset="0"></stop><stop stop-opacity="0.12" stop-color="#808080" offset="0.54"></stop><stop stop-opacity="0.1" stop-color="#808080" offset="1"></stop></linearGradient><linearGradient id="LinearGradient1176" gradientUnits="userSpaceOnUse" x1="231048.61792564357" y1="331841.3040576407" x2="231048.61792564357" y2="23136.670067035866"><stop stop-opacity="0.25" stop-color="#808080" offset="0"></stop><stop stop-opacity="0.12" stop-color="#808080" offset="0.54"></stop><stop stop-opacity="0.1" stop-color="#808080" offset="1"></stop></linearGradient></defs><desc>Generated with Avocode.</desc><g><g><title>Group 14</title><g opacity="0.6"><title>Vector</title><path d="M318.248,69.5479c-35.067,-1.2195 -68.493,-12.5478 -100.362,-24.9394c-31.87,-12.3915 -63.457,-26.12356 -97.703,-32.68973c-22.0189,-4.22795 -47.2002,-4.82259 -64.9379,6.98947c-17.0729,11.36356 -22.5876,30.98146 -25.5539,49.18336c-2.2311,13.6967 -3.5254,28.109 2.5735,40.934c4.2456,8.8994 11.7798,16.3824 16.9923,24.9094c18.1305,29.666 5.3133,66.251 -14.3382,95.242c-9.2163,13.606 -19.9083,26.552 -27.0195,41.02c-7.11119,14.467 -10.4049,31.042 -4.18009,45.797c6.16941,14.614 20.86519,25.609 36.78979,33.334c32.3429,15.678 70.452,20.163 107.615,22.733c82.262,5.628 164.967,3.189 247.446,0.75c30.525,-0.907 61.185,-1.819 91.212,-6.551c16.675,-2.625 33.893,-6.787 46.001,-16.836c15.365,-12.759 19.178,-34.358 8.879,-50.357c-17.275,-26.829 -65.034,-33.496 -77.111,-62.291c-6.642,-15.848 0.182,-33.506 9.841,-48.205c20.714,-31.531 55.444,-59.197 57.273,-95.2427c1.259,-24.758 -15.437,-49.5462 -41.252,-61.2625c-27.055,-12.2908 -64.575,-10.7387 -84.534,9.5746c-20.553,20.9281 -56.673,28.9809 -87.631,27.9075z" fill="#587eec" fill-opacity="1"></path></g><g><title>Vector</title></g><g><title>Vector</title><path d="M56.9097,262.2045c2.4274,3.2856 3.5254,17.2091 3.5254,17.2091v0c0,0 -12.97847,-5.1149 -15.41098,-8.3954c-1.16807,-1.5771 -1.66218,-3.55385 -1.37364,-5.49545c0.28854,-1.9416 1.33609,-3.68898 2.91221,-4.85775c1.57612,-1.16876 3.55171,-1.66319 5.49214,-1.37448c1.94047,0.28871 3.68677,1.33691 4.85487,2.91398z" fill="#587eec" fill-opacity="1"></path></g><g><title>Vector</title><path d="M80.1906,273.132c0.2518,4.0768 -6.38093,16.3626 -6.38093,16.3626v0c0,0 -8.12348,-11.3586 -8.38033,-15.43535c-0.09768,-1.94355 0.57393,-3.84736 1.86931,-5.29888c1.29538,-1.45152 3.11019,-2.33385 5.05121,-2.45581c1.94101,-0.12197 3.85184,0.52626 5.31854,1.80422c1.4667,1.27796 2.3711,3.08272 2.5172,5.02322z" fill="#587eec" fill-opacity="1"></path></g><g><title>Vector</title><path d="M102.7551,304.5342c-1.8332,3.6485 -13.76409,10.905 -13.76409,10.905v0c0,0 -1.27417,-13.90839 0.55903,-17.55682c0.90242,-1.71573 2.44195,-3.00838 4.28728,-3.59979c1.84533,-0.59142 3.84895,-0.43434 5.57968,0.43749c1.7307,0.87182 3.0502,2.38869 3.6745,4.22414c0.6243,1.83545 0.5035,3.84277 -0.3364,5.58998z" fill="#587eec" fill-opacity="1"></path></g><g><title>Vector</title><path d="M114.4837,332.13318c-1.1936,3.90542 -11.72437,13.07192 -11.72437,13.07192v0c0,0 -3.61099,-13.49019 -2.4174,-17.40067c0.57368,-1.87644 1.86883,-3.448 3.60053,-4.36895c1.73171,-0.92095 3.75812,-1.11585 5.63344,-0.54182c1.8753,0.57403 3.4459,1.86995 4.3663,3.60269c0.9204,1.73275 1.1152,3.76039 0.5415,5.63683z" fill="#587eec" fill-opacity="1"></path></g><g><title>Vector</title><path d="M61.80904,299.3702c4.02896,0.5443 16.76566,-5.21061 16.76566,-5.21061v0c0,0 -10.7473,-8.90943 -14.79648,-9.45367c-1.94344,-0.26129 -3.91102,0.2606 -5.46989,1.45089c-1.55886,1.19029 -2.58132,2.95147 -2.84245,4.89608c-0.26113,1.9446 0.26046,3.91341 1.45004,5.47321c1.18957,1.5598 2.94968,2.5828 4.89312,2.8441z" fill="#587eec" fill-opacity="1"></path></g><g><title>Vector</title><path d="M75.93533,331.4808c4.02897,-0.6903 14.43897,-9.9878 14.43897,-9.9878v0c0,0 -12.9231,-5.28114 -16.94703,-4.59076c-0.96342,0.15802 -1.88603,0.5054 -2.71456,1.02209c-0.82854,0.5167 -1.54659,1.19245 -2.11272,1.9883c-0.56613,0.79585 -0.96914,1.69602 -1.18574,2.64854c-0.2166,0.95252 -0.24251,1.93853 -0.07625,2.90112c0.16627,0.9626 0.52142,1.88271 1.04496,2.70721c0.52355,0.8246 1.20512,1.5372 2.00537,2.0967c0.80025,0.5596 1.70333,0.955 2.65712,1.1635c0.95379,0.2084 1.9394,0.2258 2.89994,0.0511z" fill="#587eec" fill-opacity="1"></path></g><g><title>Vector</title><path d="M93.93826,360.7953c4.08444,0 15.91954,-7.40266 15.91954,-7.40266v0c0,0 -11.8402,-7.39264 -15.92458,-7.39264c-1.96081,0 -3.8413,0.7794 -5.2278,2.16673c-1.3865,1.38733 -2.16542,3.26894 -2.16542,5.23092c0,1.96198 0.77892,3.84365 2.16542,5.23095c1.3865,1.3873 3.26699,2.1667 5.2278,2.1667z" fill="#587eec" fill-opacity="1"></path></g><g><title>Vector</title></g><g><title>Vector</title><path d="M484.9944,105.4852c-2.9312,2.8421 -16.5744,5.7851 -16.5744,5.7851v0c0,0 3.34913,-13.55568 6.28023,-16.40287c1.4148,-1.3254 3.29315,-2.04191 5.23067,-1.99529c1.9376,0.04662 3.7793,0.85265 5.1288,2.24457c1.3495,1.39191 2.0988,3.2584 2.0866,5.19762c-0.0123,1.93922 -0.785,3.79607 -2.1519,5.17087z" fill="#587eec" fill-opacity="1"></path></g><g><title>Vector</title><path d="M477.2778,129.9938c-4.029,0.7962 -17.0578,-4.1524 -17.0578,-4.1524v0c0,0 10.1732,-9.57461 14.177,-10.35569c0.9614,-0.21348 1.9557,-0.23263 2.9245,-0.05635c0.9689,0.17628 1.8928,0.54447 2.7175,1.08292c0.8247,0.53845 1.5336,1.23632 2.085,2.05266c0.5515,0.81634 0.9344,1.73468 1.1263,2.70112c0.1919,0.96644 0.1889,1.96152 -0.0088,2.92679c-0.1977,0.96527 -0.5861,1.88125 -1.1425,2.69425c-0.5563,0.813 -1.2694,1.5066 -2.0973,2.0401c-0.828,0.5335 -1.754,0.8961 -2.7239,1.0666z" fill="#587eec" fill-opacity="1"></path></g><g><title>Vector</title><path d="M449.1959,156.5418c-3.85778,-1.3354 -12.6259,-12.2001 -12.6259,-12.2001v0c0,0 13.5979,-3.11427 17.4657,-1.77886c0.9293,0.30846 1.7881,0.79854 2.5266,1.4418c0.7385,0.64326 1.3419,1.42688 1.7753,2.30538c0.4333,0.8785 0.688,1.83437 0.7491,2.81214c0.0612,0.97776 -0.0724,1.95795 -0.3929,2.88366c-0.3205,0.92569 -0.8216,1.77849 -1.4741,2.50889c-0.6526,0.7303 -1.4436,1.3237 -2.3272,1.7457c-0.8836,0.422 -1.8422,0.6642 -2.8201,0.7125c-0.9779,0.0483 -1.9557,-0.0983 -2.8765,-0.4311z" fill="#587eec" fill-opacity="1"></path></g><g><title>Vector</title><path d="M423.3843,171.836c-4.029,-0.6652 -14.4843,-9.91229 -14.4843,-9.91229v0c0,0 12.8878,-5.37185 16.9117,-4.70667c1.9368,0.31875 3.6677,1.3943 4.8119,2.99001c1.1443,1.59571 1.6081,3.58088 1.2896,5.5188c-0.3186,1.93795 -1.3935,3.66985 -2.9882,4.81475c-1.5948,1.1449 -3.5788,1.6091 -5.5156,1.2903z" fill="#587eec" fill-opacity="1"></path></g><g><title>Vector</title><path d="M448.84,115.24055c-0.00504,4.08685 7.4033,15.94425 7.4033,15.94425v0c0,0 7.3982,-11.8423 7.3982,-15.92409c0.0258,-0.98738 -0.1463,-1.96993 -0.5061,-2.88969c-0.3599,-0.91976 -0.9001,-1.7581 -1.589,-2.46558c-0.6888,-0.70748 -1.5123,-1.26978 -2.4218,-1.65371c-0.90948,-0.38393 -1.88661,-0.58173 -2.87374,-0.58173c-0.98713,0 -1.96427,0.1978 -2.87378,0.58173c-0.9095,0.38393 -1.73295,0.94623 -2.42179,1.65371c-0.68883,0.70748 -1.22911,1.54582 -1.58895,2.46558c-0.35983,0.91976 -0.53194,1.90231 -0.50618,2.88969z" fill="#587eec" fill-opacity="1"></path></g><g><title>Vector</title><path d="M418.91358,133.51558c1.21877,3.90042 11.81502,12.99632 11.81502,12.99632v0c0,0 3.5254,-13.51536 2.2966,-17.41576c-0.6373,-1.8071 -1.9505,-3.29626 -3.6631,-4.1539c-1.71266,-0.85764 -3.6911,-1.01683 -5.51869,-0.44406c-1.82759,0.57277 -3.36173,1.83281 -4.2794,3.51479c-0.91767,1.68198 -1.14723,3.65464 -0.64035,5.5026z" fill="#587eec" fill-opacity="1"></path></g><g><title>Vector</title><path d="M392.28155,155.26825c0.54391,4.03145 9.44802,14.80035 9.44802,14.80035v0c0,0 5.74633,-12.7242 5.20243,-16.77071c-0.1079,-0.98044 -0.4107,-1.92939 -0.8905,-2.79102c-0.4798,-0.86164 -1.127,-1.61857 -1.9035,-2.22625c-0.7765,-0.60768 -1.6666,-1.05383 -2.61792,-1.31224c-0.95135,-0.25841 -1.94473,-0.32385 -2.92173,-0.19245c-0.97699,0.1314 -1.91787,0.45698 -2.76726,0.95757c-0.84939,0.50059 -1.59015,1.16608 -2.17871,1.95734c-0.58856,0.79127 -1.01304,1.69233 -1.24846,2.65016c-0.23542,0.95783 -0.27703,1.9531 -0.12237,2.92725z" fill="#587eec" fill-opacity="1"></path></g><g opacity="0.25"><title>Vector</title><path d="M484.9944,105.4852c-2.9312,2.8421 -16.5744,5.7851 -16.5744,5.7851v0c0,0 3.34913,-13.55568 6.28023,-16.40287c1.4148,-1.3254 3.29315,-2.04191 5.23067,-1.99529c1.9376,0.04662 3.7793,0.85265 5.1288,2.24457c1.3495,1.39191 2.0988,3.2584 2.0866,5.19762c-0.0123,1.93922 -0.785,3.79607 -2.1519,5.17087z" fill="#000000" fill-opacity="1"></path></g><g opacity="0.25"><title>Vector</title><path d="M477.2778,129.9938c-4.029,0.7962 -17.0578,-4.1524 -17.0578,-4.1524v0c0,0 10.1732,-9.57461 14.177,-10.35569c0.9614,-0.21348 1.9557,-0.23263 2.9245,-0.05635c0.9689,0.17628 1.8928,0.54447 2.7175,1.08292c0.8247,0.53845 1.5336,1.23632 2.085,2.05266c0.5515,0.81634 0.9344,1.73468 1.1263,2.70112c0.1919,0.96644 0.1889,1.96152 -0.0088,2.92679c-0.1977,0.96527 -0.5861,1.88125 -1.1425,2.69425c-0.5563,0.813 -1.2694,1.5066 -2.0973,2.0401c-0.828,0.5335 -1.754,0.8961 -2.7239,1.0666z" fill="#000000" fill-opacity="1"></path></g><g opacity="0.25"><title>Vector</title><path d="M449.1959,156.5418c-3.85778,-1.3354 -12.6259,-12.2001 -12.6259,-12.2001v0c0,0 13.5979,-3.11427 17.4657,-1.77886c0.9293,0.30846 1.7881,0.79854 2.5266,1.4418c0.7385,0.64326 1.3419,1.42688 1.7753,2.30538c0.4333,0.8785 0.688,1.83437 0.7491,2.81214c0.0612,0.97776 -0.0724,1.95795 -0.3929,2.88366c-0.3205,0.92569 -0.8216,1.77849 -1.4741,2.50889c-0.6526,0.7303 -1.4436,1.3237 -2.3272,1.7457c-0.8836,0.422 -1.8422,0.6642 -2.8201,0.7125c-0.9779,0.0483 -1.9557,-0.0983 -2.8765,-0.4311z" fill="#000000" fill-opacity="1"></path></g><g opacity="0.25"><title>Vector</title><path d="M423.3843,171.836c-4.029,-0.6652 -14.4843,-9.91229 -14.4843,-9.91229v0c0,0 12.8878,-5.37185 16.9117,-4.70667c1.9368,0.31875 3.6677,1.3943 4.8119,2.99001c1.1443,1.59571 1.6081,3.58088 1.2896,5.5188c-0.3186,1.93795 -1.3935,3.66985 -2.9882,4.81475c-1.5948,1.1449 -3.5788,1.6091 -5.5156,1.2903z" fill="#000000" fill-opacity="1"></path></g><g opacity="0.25"><title>Vector</title><path d="M448.84,115.24055c-0.00504,4.08685 7.4033,15.94425 7.4033,15.94425v0c0,0 7.3982,-11.8423 7.3982,-15.92409c0.0258,-0.98738 -0.1463,-1.96993 -0.5061,-2.88969c-0.3599,-0.91976 -0.9001,-1.7581 -1.589,-2.46558c-0.6888,-0.70748 -1.5123,-1.26978 -2.4218,-1.65371c-0.90948,-0.38393 -1.88661,-0.58173 -2.87374,-0.58173c-0.98713,0 -1.96427,0.1978 -2.87378,0.58173c-0.9095,0.38393 -1.73295,0.94623 -2.42179,1.65371c-0.68883,0.70748 -1.22911,1.54582 -1.58895,2.46558c-0.35983,0.91976 -0.53194,1.90231 -0.50618,2.88969z" fill="#000000" fill-opacity="1"></path></g><g opacity="0.25"><title>Vector</title><path d="M418.91358,133.51558c1.21877,3.90042 11.81502,12.99632 11.81502,12.99632v0c0,0 3.5254,-13.51536 2.2966,-17.41576c-0.6373,-1.8071 -1.9505,-3.29626 -3.6631,-4.1539c-1.71266,-0.85764 -3.6911,-1.01683 -5.51869,-0.44406c-1.82759,0.57277 -3.36173,1.83281 -4.2794,3.51479c-0.91767,1.68198 -1.14723,3.65464 -0.64035,5.5026z" fill="#000000" fill-opacity="1"></path></g><g opacity="0.25"><title>Vector</title><path d="M392.28155,155.26825c0.54391,4.03145 9.44802,14.80035 9.44802,14.80035v0c0,0 5.74633,-12.7242 5.20243,-16.77071c-0.1079,-0.98044 -0.4107,-1.92939 -0.8905,-2.79102c-0.4798,-0.86164 -1.127,-1.61857 -1.9035,-2.22625c-0.7765,-0.60768 -1.6666,-1.05383 -2.61792,-1.31224c-0.95135,-0.25841 -1.94473,-0.32385 -2.92173,-0.19245c-0.97699,0.1314 -1.91787,0.45698 -2.76726,0.95757c-0.84939,0.50059 -1.59015,1.16608 -2.17871,1.95734c-0.58856,0.79127 -1.01304,1.69233 -1.24846,2.65016c-0.23542,0.95783 -0.27703,1.9531 -0.12237,2.92725z" fill="#000000" fill-opacity="1"></path></g><g><title>Vector</title></g><g><title>Vector</title><path d="M446.0975,73.7061c-1.5109,3.7896 -12.81225,12.0137 -12.81225,12.0137v0c0,0 -2.42747,-13.75222 -0.90148,-17.54176c0.73463,-1.81964 2.16159,-3.27275 3.96697,-4.03965c1.80537,-0.76691 3.84126,-0.78479 5.65986,-0.04972c1.8185,0.73507 3.2707,2.16289 4.0372,3.96935c0.7664,1.80646 0.7843,3.84358 0.0497,5.66318z" fill="#587eec" fill-opacity="1"></path></g><g><title>Vector</title><path d="M448.9744,99.2644c-3.3391,2.3483 -17.2744,3.1193 -17.2744,3.1193v0c0,0 5.42907,-12.87034 8.76811,-15.21865c0.79187,-0.59301 1.69459,-1.021 2.65479,-1.25864c0.9602,-0.23763 1.9582,-0.28007 2.935,-0.1248c0.9769,0.15526 1.9127,0.50508 2.752,1.02873c0.8393,0.52365 1.565,1.21048 2.1343,2.01984c0.5692,0.80935 0.9704,1.72476 1.1797,2.69204c0.2093,0.96727 0.2225,1.96674 0.0388,2.93921c-0.1837,0.97247 -0.5605,1.89818 -1.1082,2.72228c-0.5476,0.8242 -1.255,1.5299 -2.0801,2.0756z" fill="#587eec" fill-opacity="1"></path></g><g><title>Vector</title><path d="M434.0387,134.931c-4.0693,0.3427 -16.4887,-6.04711 -16.4887,-6.04711v0c0,0 11.1805,-8.36519 15.2498,-8.70786c1.9541,-0.16439 3.8935,0.45469 5.3914,1.72105c1.4979,1.26637 2.4318,3.07628 2.5961,5.03157c0.1643,1.9553 -0.4544,3.89585 -1.72,5.39465c-1.2657,1.4989 -3.0745,2.4333 -5.0286,2.5977z" fill="#587eec" fill-opacity="1"></path></g><g><title>Vector</title><path d="M416.6493,159.3685c-3.9534,1.0078 -17.2693,-3.1596 -17.2693,-3.1596v0c0,0 9.60416,-10.134 13.5576,-11.16202c1.898,-0.4925 3.9138,-0.2104 5.604,0.78427c1.6901,0.99466 2.9162,2.6204 3.4084,4.51956c0.4922,1.89917 0.2103,3.91618 -0.7838,5.60739c-0.9941,1.6911 -2.6188,2.9179 -4.5169,3.4104z" fill="#587eec" fill-opacity="1"></path></g><g><title>Vector</title><path d="M417.00326,97.3147c1.6519,3.7341 13.20504,11.5903 13.20504,11.5903v0c0,0 1.9642,-13.82779 0.3123,-17.56189c-0.8231,-1.74704 -2.2965,-3.10268 -4.10523,-3.77725c-1.80874,-0.67457 -3.80942,-0.61457 -5.57454,0.16717c-1.76512,0.78175 -3.15467,2.22324 -3.87175,4.01647c-0.71709,1.79323 -0.70481,3.79597 0.03418,5.5803z" fill="#587eec" fill-opacity="1"></path></g><g><title>Vector</title><path d="M397.04655,126.146c2.69439,3.069 16.06055,7.0903 16.06055,7.0903v0c0,0 -2.2562,-13.78241 -4.9506,-16.85133c-0.636,-0.74553 -1.4137,-1.35717 -2.2879,-1.79937c-0.87429,-0.4422 -1.82764,-0.70616 -2.80471,-0.77651c-0.97708,-0.07036 -1.95841,0.05427 -2.88693,0.36666c-0.92852,0.31239 -1.78573,0.80631 -2.52184,1.45305c-0.73611,0.64674 -1.33642,1.4334 -1.76607,2.31429c-0.42965,0.88088 -0.68006,1.83841 -0.73669,2.81696c-0.05662,0.97856 0.08165,1.95862 0.40683,2.88324c0.32518,0.92462 0.83076,1.77532 1.48736,2.50272z" fill="#587eec" fill-opacity="1"></path></g><g><title>Vector</title><path d="M381.4868,156.8417c2.13538,3.4771 14.6303,9.7006 14.6303,9.7006v0c0,0 0.1058,-13.96385 -2.0145,-17.44599c-1.0554,-1.6078 -2.6953,-2.741 -4.57173,-3.15928c-1.87648,-0.41828 -3.84201,-0.08874 -5.47974,0.91873c-1.63772,1.00748 -2.81881,2.61364 -3.29284,4.47788c-0.47403,1.86424 -0.2037,3.83992 0.75369,5.50806z" fill="#587eec" fill-opacity="1"></path></g><g><title>Vector</title><path d="M366.82,48.07219c0.83602,-3.06892 1.84326,-6.15296 2.54833,-9.26219" fill="url(#LinearGradient1167)"></path></g><g><title>Vector</title><path d="M363.046,77.6327c-0.07,-0.121 -0.121,-0.2419 -0.176,-0.3528c0,-0.04713 -0.04373,-0.08543 -0.06575,-0.13142c-0.10344,0.04781 -0.20947,0.09005 -0.31725,0.12642c-0.221,0.0857 -0.448,0.1663 -0.68,0.2318c-0.231,0.0655 -0.327,0.1008 -0.503,0.1411c-0.146,0.0504 -0.296,0.0891 -0.448,0.1159l0.04,0.0907c0.186,-0.0403 0.367,-0.0756 0.554,-0.126l0.05,0.6249c0.212,0 0.408,-0.0302 0.6,-0.0302c0.08236,0 0.17442,0 0.271,0c0.393,0 0.736,0 1.008,0c-0.0374,-0.08003 -0.07543,-0.16132 -0.11294,-0.24298c-0.07397,-0.1486 -0.15215,-0.30218 -0.22006,-0.44742zM363.384,78.3231c0.1,0.2166 0.216,0.4384 0.327,0.6551c0.071,0.131 0.136,0.257 0.202,0.393c0.015,-0.005 0.402,-0.1159 1.072,-0.262l0.504,-0.1058c0.393,-0.0807 0.896,-0.1663 1.4,-0.252l0.267,-0.0504l0.272,-0.0403c-0.101,-1.0191 -0.468,-1.9939 -1.063,-2.827c-0.259,-0.0952 -0.527,-0.1644 -0.801,-0.2067c-0.12,-0.0201 -0.241,-0.0453 -0.377,-0.0453c-0.973,-0.0961 -1.953,-0.0961 -2.926,0l-0.096,-0.5543v-0.1311l-0.383,0.0252c0.025,0.0605 0.051,0.126 0.081,0.1865c0.272,0.6148 0.554,1.2397 0.861,1.8645c0.021,0.0573 0.046,0.1129 0.076,0.1663c0.0013,0.00327 0.00272,0.00649 0.00425,0.00968c-0.10344,0.04781 -0.20947,0.09005 -0.31725,0.12642c-0.221,0.0857 -0.448,0.1663 -0.68,0.2318c-0.231,0.0655 -0.327,0.1008 -0.503,0.1411l-0.448,0.1159l0.04,0.0907c0.186,-0.0403 0.367,-0.0756 0.554,-0.126l0.05,0.6249c0.212,0 0.408,-0.0302 0.6,-0.0302c0.09,-0.005 0.181,-0.005 0.271,0c0.36432,0 0.793,0 1.008,0c-0.0374,-0.08003 -0.07543,-0.16132 -0.11294,-0.24298c0.04149,0.08334 0.08165,0.16511 0.11794,0.24298zM465.307,240.467c1.31319,8.46512 2.15956,17.00845 2.68,25.559c0.15012,2.46637 0.03514,5.01531 -0.675,7.382c-0.88343,2.94422 -2.68019,5.53283 -4.029,8.295c-0.01644,0.03367 -0.04372,0.06087 -0.066,0.091c-1.16139,1.57087 -2.06874,3.36639 -3.485,4.712c-4.33145,4.11536 -9.0681,7.78309 -13.673,11.59c-4.66912,3.86 -9.42609,7.61251 -14.147,11.409c-0.01039,0.00836 -0.02794,-0.00569 -0.04,0c-1.63244,0.77086 -3.30247,1.46846 -4.89,2.328c-1.48223,0.80252 -3.05141,1.52537 -4.306,2.651c-0.61104,0.54823 -0.75422,1.45884 -1.103,2.202c-0.07519,0.16021 -0.06547,0.35904 -0.167,0.504c-0.03557,0.05078 -0.12403,-0.00194 -0.186,0c-0.68506,0.0214 -1.37002,0.04622 -2.055,0.07c-0.38102,0.01322 -0.97666,-0.30204 -1.143,0.041c-0.34588,0.71329 -0.01751,1.58537 -0.03,2.378c-0.00018,0.01132 -0.008,0.02168 -0.008,0.033c0,0.01132 0.00655,0.02177 0.008,0.033c2.11302,16.34337 10.0988,72.31154 3.334,74.672c-49.61467,17.31219 -108.23264,17.88143 -157.645,0c-13.90128,-5.03062 1.00974,-65.33225 3.43,-82.282c0.43552,-3.05005 0.26731,-6.15669 0.332,-9.237c0.11332,-5.39623 0.12556,-10.79412 0.202,-16.191c0.01257,-0.88718 0.95043,-2.60392 0.065,-2.661c-8.29495,-0.53477 -17.17917,4.10277 -24.914,1.059c-7.49338,-2.94875 -11.95711,-10.94493 -16.716,-17.441c-1.05921,-1.44587 -0.1809,-3.59382 0,-5.377c0.99552,-9.81291 2.3613,-19.58473 3.526,-29.379c0.01071,-0.09003 -0.00839,-0.18172 0,-0.272c0.03366,-0.36221 0.28058,-0.75471 0.126,-1.084c-1.95528,-4.16502 -4.24929,-8.16246 -6.381,-12.24c-0.22697,-0.43415 -0.80767,-0.81823 -0.695,-1.295c2.06898,-8.75473 4.48163,-17.43228 7.151,-26.023c0.72648,-2.338 1.24907,-5.00232 3.016,-6.697c1.76631,-1.69409 4.49704,-1.9466 6.815,-2.732c0.33772,-0.11443 0.71214,0.08365 1.068,0.061c0.17569,-0.01118 0.45731,0.00901 0.503,-0.161c2.91318,-10.84087 5.10333,-21.87729 8.31,-32.635c1.31665,-4.4171 2.12514,-9.39525 5.233,-12.799c3.82141,-4.18524 9.67157,-5.91098 14.524,-8.839c8.93862,-5.39368 17.85951,-10.81754 26.849,-16.126c4.65124,-2.74664 9.00221,-6.17107 14.071,-8.038c2.9665,-1.09262 6.3023,-0.56747 9.463,-0.63c0.50415,-0.00997 0.9574,0.49564 1.455,0.414c0.33135,-0.05436 0.32494,-0.73906 0.66,-0.761c0.32958,-0.02158 0.49364,0.4393 0.73,0.67c0.25085,0.24485 0.80815,1.09794 0.731,0.756c-0.03656,-0.16201 -1.70538,-2.5492 -1.813,-2.621c-0.2795,-0.18648 -0.67205,0.00582 -1.008,0c-0.72179,-0.01251 -1.62827,0.42776 -2.165,-0.055c-13.56177,-12.19808 -27.12624,-24.44355 -39.731,-37.6282c-0.95773,-1.00179 -0.28885,-2.7686 -0.212,-4.1524c0.16213,-2.91954 0.62269,-5.81484 0.927,-8.723c0.00472,-0.04509 -0.00992,-0.09176 0,-0.136c0.14134,-0.63048 0.2933,-1.25862 0.453,-1.8847c0.06702,-0.26273 0.15041,-0.521 0.227,-0.7811c0.04608,-0.15651 0.28472,-0.39148 0.141,-0.4687c-2.95629,-1.58834 -3.99322,-0.80295 -6.164,-3.3612c-0.28948,-0.34115 -2.58646,-3.56927 -2.614,-5.0443c-0.04127,-2.21034 -0.68451,-4.63351 0.272,-6.6266c1.77092,-3.69007 4.65431,-6.7918 7.554,-9.6805c2.8851,-2.87416 6.8868,-4.49559 9.665,-7.4732c1.47913,-1.5853 1.08516,-4.5362 2.79,-5.87581c5.22857,-4.10843 10.74346,-8.86332 17.309,-9.91729c4.55807,-0.73171 36.45314,8.08841 40.608,8.97495c3.02683,0.64585 6.54606,-0.40468 9.211,1.16915c3.49576,2.06448 6.35146,5.42017 8.128,9.0707c2.04052,4.19296 2.52575,9.032 2.942,13.6765c0.20786,2.31925 -0.73587,4.59859 -1.098,6.8988c-0.00392,0.02489 0.00625,0.05119 0,0.0756c-1.15395,4.51002 -2.85509,8.91223 -3.48,13.5254c-0.58086,4.288 0.62341,11.38026 2.085,15.6167c0.08613,0.24965 0.39129,-0.90678 0.453,-0.65c0.22968,0.9557 -0.57729,2.78876 -1.163,3.4065c-0.65978,0.69587 -1.78775,0.90198 -2.322,1.6983c-0.20374,0.30368 0.72907,0.07098 1.088,0.141c0.30565,0.05962 0.60501,0.15022 0.901,0.247c0.26566,0.08687 0.62482,0.30725 0.816,0.4888c0.1336,0.12687 0.21275,0.30311 0.343,0.4334c0.09679,0.09682 0.24404,0.13689 0.332,0.2418c0.17923,0.21379 0.33668,0.44928 0.458,0.7005c0.41699,0.86348 0.3139,2.17141 1.153,2.6355c4.32943,2.39451 9.4501,3.14605 13.744,5.6037c0.86394,0.49449 0.70131,1.86549 0.977,2.822c1.63709,5.67994 0.54183,12.94159 4.76,17.0827c5.81406,5.70785 15.12495,6.09625 22.461,9.641c9.06186,4.37865 18.16544,8.76486 26.693,14.11c2.66218,1.66867 5.60615,3.76047 6.582,6.747c3.65055,11.17228 4.62285,23.0481 6.92,34.575c2.19411,11.00984 12.32101,61.63724 13.849,71.487zM367.921,85.4688c-0.066,-0.1999 -0.169,-0.386 -0.302,-0.5493c0,-0.0353 0,-0.0353 0,-0.0353l-0.191,0.262l0.085,0.121l0.121,0.1612c0.126,0.1613 0.252,0.3377 0.378,0.504c-0.012,-0.1576 -0.042,-0.3132 -0.091,-0.4636zM363.958,79.3763c0.307,0.645 0.65,1.2799 1.007,1.9149c0.282,-0.0756 0.715,-0.1764 1.264,-0.2872c-0.703,-0.614 -1.464,-1.159 -2.271,-1.6277zM365.559,82.2436c0.162,0.2772 0.328,0.5442 0.504,0.8214c0.111,-0.1461 0.222,-0.3275 0.322,-0.5039c-0.151,-0.121 -0.302,-0.2369 -0.468,-0.3578c-0.186,-0.1361 -0.388,-0.2671 -0.594,-0.4031l-0.041,-0.0303c-0.001,0.01 -0.001,0.0202 0,0.0303c0.086,0.1814 0.177,0.3326 0.277,0.4434zM242.589,388.889c1.209,1.557 2.755,3.487 4.417,5.502h-142.02234c1.07775,-2.575 1.90873,-4.303 1.90873,-4.303c0,0 9.14581,-39.725 14.83181,-61.394c0.0015,-0.016 0.0015,-0.033 0,-0.05c0.4734,-1.774 0.9166,-3.422 1.3295,-4.933c-2.8175,2.376 -5.8393,4.499 -9.03,6.344c-4.029,2.368 -8.77313,4.535 -13.25036,4.087c-1.11881,-0.104 -2.21378,-0.386 -3.24334,-0.837c0.03525,-0.01 0.03525,-0.04 0.03525,-0.04h-0.03525c3.42969,-3.976 4.30095,-9.408 5.03625,-14.558c2.0145,-14.057 4.029,-28.113 6.04355,-42.169c0.799,-5.6 1.5981,-11.196 2.3972,-16.786c1.5059,-10.512 3.0167,-21.14 2.085,-31.722c-0.6849,-7.791 -2.6138,-16.07 0.7907,-23.125c1.798,-3.745 4.9859,-6.839 5.9931,-10.87c0.8159,-3.266 0.0555,-6.743 0.5943,-10.079c0.2956,-1.517 0.7954,-2.986 1.4857,-4.369c0.2065,-0.453 0.4533,-0.907 0.7101,-1.36c0.4511,-0.814 0.9559,-1.597 1.5109,-2.344l0.2166,-0.287c0.3324,-0.413 0.6597,-0.806 1.0072,-1.184l-0.4281,-0.131c-1.1231,-0.281 -2.1293,-0.909 -2.8757,-1.794c0.0031,0.008 0.0031,0.017 0,0.025c-0.0251,-0.04 -0.0554,-0.07 -0.0856,-0.111c-0.0047,-0.014 -0.0135,-0.026 -0.0252,-0.035c2.1052,-1.356 2.4879,-4.344 1.6368,-6.707c-0.0352,-0.101 -0.0755,-0.202 -0.1158,-0.303c-1.0022,-2.393 -2.9764,-4.217 -4.7693,-6.117c-0.4634,-0.504 -0.9116,-1.008 -1.3346,-1.512c-1.2289,-1.527 -2.211,-3.24 -2.3772,-5.155c-0.4331,-4.903 4.5024,-8.718 5.3737,-13.566c0.8763,-4.933 -2.5987,-9.721 -2.3267,-14.715c0.3324,-6.042 5.9075,-10.446 11.4121,-12.966c8.3193,-3.816 17.4939,-5.379 26.6065,-4.535c7.3983,0.7 14.6052,2.983 22.0034,3.87c4.4622,0.529 8.9847,0.549 13.4216,1.335c4.437,0.787 8.8735,2.424 11.9915,5.655c2.135,2.202 3.052,4.298 3.238,6.369v0.051c0.025,0.407 0.025,0.816 0,1.224c-0.141,3.22 -1.858,6.37 -3.314,9.681c0.277,0.312 0.574,0.655 0.821,0.962c0.247,0.307 0.494,0.62 0.725,0.932c3.083,4.064 5.291,8.723 6.487,13.682c2.098,8.745 0.957,17.953 -3.209,25.921c-4.167,7.968 -11.0783,14.156 -19.454,17.417l-0.2619,0.101c-0.6799,0.262 -1.3698,0.508 -2.0699,0.73c-0.2115,0.726 -0.418,1.462 -0.6094,2.207c-0.1208,0.459 -0.2417,0.913 -0.3475,1.381c-0.1208,0.469 -0.2367,0.932 -0.3424,1.411c-1.1231,4.772 -1.9843,9.671 -2.634,14.009c0.5288,0.172 1.0627,0.348 1.5663,0.529c12.9835,4.541 20.6488,10.83 20.6488,10.83l-0.04,0.635l0.04,0.035l-0.096,1.371l-0.04,0.645l-0.73,10.723c0.11,0.237 0.473,1.049 0.977,2.253c0.01,0.025 0.035,0.06 0.035,0.091c3.102,7.186 11.976,28.209 14.101,35.839c0.373,1.376 0.539,2.313 0.408,2.661c-1.017,2.676 7.766,36.232 7.766,36.232c0,0 4.422,17.587 8.653,37.548h0.141l1.551,-0.207c0.166,0.786 0.332,1.572 0.503,2.369c0.675,3.184 1.34,6.425 1.985,9.665c1.51,7.619 2.054,15.738 2.095,23.241zM136.9639,187.847c-0.0806,0.141 -0.1612,0.287 -0.2468,0.428c-0.2669,0.474 -0.5439,0.942 -0.8058,1.416c-0.4057,0.716 -0.7738,1.453 -1.1029,2.207c-0.1411,0.318 -0.267,0.64 -0.3828,0.968c-0.2849,0.863 -0.4576,1.759 -0.5137,2.666c-0.0252,0.206 -0.0252,0.413 -0.0252,0.614c-0.0151,3.13 1.5411,6.103 2.9261,8.955c1.9779,4 3.5943,8.169 4.8297,12.457c0.1964,-0.141 0.3878,-0.282 0.5893,-0.408c0.2669,-0.171 0.5338,-0.338 0.8058,-0.504c-0.1495,-0.889 -0.2203,-1.789 -0.2115,-2.691c-0.0789,-0.529 -0.0019,-1.071 0.2216,-1.557c0.0373,-0.04 0.0648,-0.089 0.0805,-0.141c-0.2619,-1.27 -1.5662,-3.744 -1.6519,-7.917c-0.0102,-0.127 -0.0102,-0.255 0,-0.383c-0.0052,-0.095 -0.0052,-0.191 0,-0.287c-0.1158,-5.357 9.1308,-1.829 9.1308,-1.829c-0.1964,-1.754 -0.418,-3.548 -0.6447,-5.347c0,-0.02 0,-0.05 0,-0.05c-0.0805,-0.65 -0.1662,-1.3 -0.2568,-1.94l-0.0756,-0.625c-0.3676,-0.106 -0.7353,-0.217 -1.0979,-0.333c-3.5388,-1.105 -7.0339,-2.34 -10.4854,-3.704l-0.5843,-0.242l-0.5036,-0.186c0,-0.02 0,-0.045 0,-0.045c0.0353,-0.207 0.0806,-0.414 0.0806,-0.62c0,-0.071 0,-0.056 0,-0.197c0,-0.141 0,-0.277 0,-0.428c0,-0.151 0,-0.308 0,-0.469c-0.0352,0.056 -0.0604,0.111 -0.0957,0.171z" fill="url(#LinearGradient1176)"></path></g><g><title>Vector</title><path d="M253.0285,151.65081v0l-3.0217,1.33542v0c0,0 -19.6968,76.56677 -19.6968,82.75497c0,6.1882 41.7657,40.6218 41.7657,40.6218v0l6.5169,-44.0132v0c0,0 -9.3574,-100.9317 -25.5641,-80.69899z" fill="#e8f5ff" fill-opacity="1"></path></g><g><title>Vector</title><path d="M344.6445,127.2973v0l-17.4506,-9.111c-0.9775,-4.1693 -2.7119,-8.1235 -5.1169,-11.666c-2.55333,-3.6887 -5.94775,-7.3119 -10.1782,-9.2017c-10.69197,-4.7974 45.2256,-29.9786 45.2256,-29.9786c0.8808,3.02498 1.918,6.00215 3.1073,8.91951c2.8808,7.11549 7.6602,16.31719 13.8195,18.93759c10.4704,4.4598 -29.4067,32.1002 -29.4067,32.1002v0z" fill="#ffb0b1" fill-opacity="1"></path></g><g opacity="0.1"><title>Vector</title><path d="M360.2317,76.25951c-2.3893,8.40799 -7.3578,15.85259 -14.204,21.28239c-6.8463,5.4298 -15.2242,8.5704 -23.9507,8.9784c-2.55334,-3.6887 -5.94775,-7.3119 -10.1782,-9.2017c-10.69196,-4.7974 45.2255,-29.9786 45.2255,-29.9786c0.8808,3.02498 1.918,6.00215 3.1074,8.91951z" fill="#000000" fill-opacity="1"></path></g><g><title>Vector</title><path d="M361.7999,63.5403c0.002,8.2461 -2.4401,16.3076 -7.0173,23.1649c-4.5772,6.8573 -11.0839,12.2024 -18.6973,15.3592c-7.6134,3.1568 -15.9914,3.9836 -24.0744,2.3757c-8.083,-1.6079 -15.508,-5.5782 -21.3357,-11.4087c-5.82778,-5.8306 -9.79658,-13.2595 -11.40448,-21.3471c-1.6079,-8.0877 -0.78265,-16.4708 2.37135,-24.0891c3.15399,-7.6184 8.49503,-14.1297 15.34773,-18.71049c6.8526,-4.58078 14.909,-7.02526 23.1502,-7.02427c5.4775,-0.02535 10.9058,1.03539 15.9713,3.12096c5.0655,2.08557 9.6679,5.15464 13.5414,9.03c3.8735,3.8753 6.9412,8.4801 9.0262,13.5484c2.0849,5.0683 3.1457,10.4997 3.121,15.9805z" fill="#ffb0b1" fill-opacity="1"></path></g><g><title>Vector</title><path d="M367.8222,121.93906v0l-11.3617,26.52674v0l-10.0222,17.6072v0h-32.08093v0l-9.35737,-24.0726v0l3.79231,-24.96455v0h24.50139v0l15.8189,-0.89195v0l5.3434,-1.7839v0l3.4448,1.95523v0z" fill="#575a89" fill-opacity="1"></path></g><g opacity="0.1"><title>Vector</title><path d="M363.9079,86.57888c0,0 7.086,1.51179 0.7404,6.71736c-6.3457,5.20556 -28.2383,21.75956 -28.2383,21.75956v0c0,0 7.69035,6.8534 6.09889,14.881l25.47841,-14.2108v0l4.5326,-22.73716v0c0,0 0.5087,-6.83325 -8.612,-6.40996z" fill="#000000" fill-opacity="1"></path></g><g opacity="0.1"><title>Vector</title><path d="M341.4131,115.06v0l-16.20664,2.67585v0c0,0 3.34406,12.37145 1.67203,15.88375c-0.05051,0.1092 -0.0926,0.2221 -0.1259,0.3377l-6.61259,17.8844v0l4.95564,14.0444v0l17.15346,-23.4074v0l-5.8471,-8.8591v0c0,0 6.1795,-8.1938 9.8559,-11.03597c3.6765,-2.84215 -4.8448,-7.52363 -4.8448,-7.52363v0z" fill="#000000" fill-opacity="1"></path></g><g><title>Vector</title><path d="M341.4131,114.37v0l-16.20664,2.67081v0c0,0 3.34406,12.37139 1.67203,15.88379c-0.05051,0.1092 -0.0926,0.222 -0.1259,0.3376l-6.61259,17.8844v0l4.95564,14.0445v0l17.15346,-23.4226v0l-5.8471,-8.859v0c0,0 6.1795,-8.1939 9.8559,-11.03603c3.6765,-2.84215 -4.8448,-7.50347 -4.8448,-7.50347v0z" fill="#dce6f2" fill-opacity="1"></path></g><g><title>Vector</title><path d="M364.5879,85.24888c0,0 7.086,1.51179 0.7353,6.71736c-6.3508,5.20556 -28.9132,23.09496 -28.9132,23.09496v0c0,0 8.35515,5.518 6.76873,13.5406l25.47847,-14.2057v0l4.5326,-22.73726v0c0,0 0.5036,-6.83325 -8.6019,-6.40996z" fill="#575a89" fill-opacity="1"></path></g><g opacity="0.1"><title>Vector</title><path d="M323.1896,108.1v0c0,0 1.5461,2.89254 8.3703,8.10819c0,0 -11.3618,6.04711 -7.0155,14.54841l-17.38015,-4.5354v0l-2.67425,-8.36013v0z" fill="#000000" fill-opacity="1"></path></g><g><title>Vector</title><path d="M322.5246,107.43v0c0,0 1.5461,2.89256 8.3702,8.10821c0,0 -11.3618,6.01689 -7.0155,14.54329l-17.37505,-4.5353v0l-2.67425,-8.35511v0z" fill="#575a89" fill-opacity="1"></path></g><g opacity="0.1"><title>Vector</title><path d="M367.8222,121.94383v0l-11.3617,26.52677v0l-10.002,17.6072v0h-32.10113v0l-9.35737,-24.0726v0l3.78727,-24.96459v0h6.81403c-0.1108,5.82541 2.0145,12.66879 1.8786,15.21359c-0.2317,4.1826 6.2348,26.7485 6.2348,26.7485v0c0,0 13.5325,-21.9007 18.8759,-23.8509c3.3592,-1.2246 10.4754,-11.41399 15.3052,-18.8318z" fill="#000000" fill-opacity="1"></path></g><g><title>Vector</title><path d="M412.57,261.535v0l-1.153,1.451v0c0,0 8.355,41.962 6.043,51.492c-0.393,1.717 -0.617,3.469 -0.67,5.23v0.076c-0.408,9.696 2.518,22.279 2.518,22.279v0c0,0 2.337,37.089 1.008,52.343h-156.4364c-0.9166,-22.556 -1.9037,-51.779 -1.0072,-55.019c1.5108,-5.347 4.5326,-24.743 4.5326,-24.743v0l0.3324,-9.192v0c0,0 0,-8.884 0.272,-18.781c0.1158,-4.45 0.287,-9.121 0.5338,-13.263c0.3173,-5.211 0.7605,-9.6 1.3699,-11.757c0.3753,-1.635 0.5912,-3.302 0.6446,-4.979c0,-0.156 0,-0.317 0.0302,-0.479c0,-0.504 0.0504,-1.048 0.0705,-1.607c0,-0.156 0,-0.313 0,-0.504c0.0957,-3.245 0.0604,-7.095 -0.0453,-11.086c0,-0.217 0,-0.439 0,-0.661c-0.0856,-2.993 -0.2115,-6.047 -0.3526,-8.949c-0.4381,-9.071 -1.0072,-16.741 -1.0072,-16.741v0l-19.2133,-63.6962v0l5.17725,-12.7595v0l14.36845,-8.8086v0l26.5662,-16.05012c12.9583,-10.65807 21.4897,-9.3781 24.7432,-8.20899c0.3159,0.10788 0.6253,0.23408 0.9266,0.37795c0.1007,0.05039 0.1813,0.0907 0.2569,0.13605c0.1035,0.04903 0.2028,0.10633 0.2971,0.17134v0c-0.8908,0.42885 -1.6649,1.0668 -2.2562,1.85949c-0.6663,0.90212 -1.141,1.93106 -1.3951,3.02357c-0.1701,0.67719 -0.2896,1.36612 -0.3575,2.06107c-0.0655,0.7307 -0.0907,1.48658 -0.0907,2.24754c0.0359,1.6687 0.1789,3.3334 0.4281,4.9838c0,0.0302 0,0.0706 0,0.1109c0.1662,1.1792 0.3727,2.3332 0.5741,3.4166c-0.0023,0.0184 -0.0023,0.037 0,0.0554c0.2317,1.2649 0.4634,2.434 0.6195,3.4419c0.0302,0.1814 0.0554,0.3477 0.0806,0.5039c0.111,0.666 0.1632,1.3405 0.1561,2.0157c0.0567,1.6304 0.276,3.251 0.6547,4.8377c0.1309,0.6652 0.282,1.3757 0.4482,2.1165c0.2266,1.0079 0.4734,2.1064 0.7403,3.2251c0.1461,0.6148 0.3022,1.2498 0.4634,1.8797c0.0604,0.2519 0.1259,0.5039 0.1863,0.7609l0.1008,0.3981c1.0727,4.2683 2.2361,8.5164 2.9512,11.0864c0.423,1.5118 0.69,2.4441 0.69,2.4441v0c0,0 7.5846,-12.2707 13.6382,-19.2551c0.0906,-0.1008 0.1712,-0.1965 0.2568,-0.2872c0.5993,-0.6904 1.1885,-1.3203 1.7526,-1.8746c1.2339,-1.2296 2.3419,-2.1065 3.2333,-2.429c0.19,-0.0697 0.3737,-0.1557 0.5489,-0.257c2.4779,-1.4059 6.4767,-6.5107 10.2187,-11.8574c0.368,-0.5039 0.725,-1.0532 1.088,-1.5722c0.831,-1.1994 1.636,-2.4038 2.397,-3.5578c0.584,-0.88185 1.143,-1.73853 1.672,-2.55489c2.518,-3.92056 4.291,-6.84333 4.291,-6.84333v0l3.495,-0.15622v0l0.609,-0.03023v0h0.408v0l15.87,-0.73574v0c0,0 0.685,0.11592 1.813,0.34268c0.06,0 0.121,-0.00001 0.186,0.04031c5.631,1.11871 21.273,4.66133 22.23,9.57462c1.168,6.0169 26.4,14.0445 26.4,14.0445c0.332,4.0314 6.512,6.6871 6.512,6.6871v0c0,0 9.357,24.7428 6.854,34.4384c-2.473,9.5746 6.437,33.2592 6.673,33.9244l-1.707,2.1564v0z" fill="#e8f5ff" fill-opacity="1"></path></g><g opacity="0.1"><title>Vector</title><path d="M363.8976,84.82461c0,0 15.4462,-4.38417 18.9565,4.64117c3.5103,9.02532 11.3618,45.47442 11.3618,45.47442v0c0,0 -20.3868,3.8449 -25.7302,0c-3.1344,-2.282 -7.0137,-3.2969 -10.8632,-2.8422l-11.52802,7.8562v0l-3.40448,-1.0078v0c0,0 18.4427,-27.4338 22.4516,-36.7565c4.0088,-9.32262 5.3636,-13.49009 -1.244,-17.36529z" fill="#000000" fill-opacity="1"></path></g><g><title>Vector</title><path d="M363.2275,82.80461c0,0 15.4563,-4.38417 18.9817,4.64117c3.5253,9.02532 11.3617,45.47442 11.3617,45.47442v0c0,0 -20.3817,3.8449 -25.7302,0c-3.1324,-2.2821 -7.0102,-3.2971 -10.8581,-2.8422l-11.53809,7.8562v0l-3.40451,-1.0078v0c0,0 18.4428,-27.4338 22.4516,-36.7565c4.0089,-9.32262 5.3435,-13.48001 -1.2641,-17.36529z" fill="#e8f5ff" fill-opacity="1"></path></g><g opacity="0.1"><title>Vector</title><path d="M259.55019,228.22c0,0 11.52801,2.84216 13.70371,9.36298c2.1756,6.52082 -8.52141,6.68712 -8.52141,6.68712v0c0,0 -6.51691,-11.53491 -5.1823,-16.0501z" fill="#000000" fill-opacity="1"></path></g><g opacity="0.1"><title>Vector</title><path d="M302.4829,276.36v0c0,0 -28.23324,57.8458 -21.71632,63.3638c6.51692,5.518 21.71633,-63.3638 21.71633,-63.3638v0z" fill="#000000" fill-opacity="1"></path></g><g opacity="0.1"><title>Vector</title><path d="M341.42,233.73v0c0,0 22.5574,56.1879 18.0449,64.8656c-4.5125,8.6776 9.6898,0 9.6898,0v0z" fill="#000000" fill-opacity="1"></path></g><g><title>Vector</title><path d="M372.8269,289.24v0c0,0 -76.1884,3.67866 -53.96344,27.4187c22.22504,23.74 67.83334,1.0078 67.83334,1.0078v0z" fill="#ffb0b1" fill-opacity="1"></path></g><g opacity="0.1"><title>Vector</title><path d="M361.8048,63.5418c0.0069,5.4677 -1.0662,10.8829 -3.1577,15.9342c-0.7001,0.0806 -1.4001,0.131 -2.0749,0.1613c-1.0073,-2.2123 -0.4684,-4.7672 -0.4483,-7.2012c0.0202,-2.4339 -0.8763,-5.2962 -3.2182,-5.9514c-4.6686,-1.3152 -7.8918,7.4179 -12.4949,5.8406c-3.5254,-1.1994 -2.6037,-6.5511 -4.6334,-9.6402c-1.6065,-2.444 -4.8247,-3.1344 -7.3277,-4.6663c-5.3233,-3.2705 -5.1621,-8.5013 -7.6349,-13.4499c-2.5887,-5.1854 -8.0581,-3.6534 -12.8073,-0.5946c-3.6059,2.3281 -6.7183,5.4475 -10.5761,7.3019c-3.339,1.6126 -7.091,2.1971 -10.79268,2.2828c-2.27889,0.0884 -4.5586,-0.1526 -6.76872,-0.7156c2.59966,-9.7792 8.66534,-18.2786 17.0659,-23.91299c8.4005,-5.63442 18.5624,-8.01926 28.5906,-6.70978c10.0282,1.30949 19.2381,6.22389 25.9121,13.82677c6.6741,7.6028 10.3567,17.3751 10.3612,27.4944z" fill="#000000" fill-opacity="1"></path></g><g><title>Vector</title><path d="M308.0186,42.6362c-3.611,2.3282 -6.7184,5.4425 -10.5761,7.307c-3.3391,1.6075 -7.0911,2.1921 -10.7927,2.2778c-4.5326,0.1007 -9.41279,-0.6955 -12.51009,-3.971c-2.84548,-3.0236 -3.52537,-7.6748 -2.3217,-11.6407c1.20366,-3.9659 4.08942,-7.2566 7.47882,-9.6402c3.38937,-2.3835 7.32267,-4.0314 9.56887,-7.443c1.1886,-1.804 1.7627,-3.9306 2.7498,-5.85056c3.1578,-6.14288 10.2589,-9.4688 17.1233,-9.88202c6.8644,-0.41322 13.6684,1.63272 20.2054,3.85001c6.5371,2.21728 13.1245,4.65629 20.0242,5.11486c3.0721,0.19149 6.2651,0 9.1156,1.16411c3.8326,1.5571 6.3457,5.2811 8.058,9.0707c1.9188,4.2733 3.1124,8.9396 2.911,13.606c-0.4231,9.9626 -7.0004,19.7388 -4.1096,29.2832c0.7655,2.5449 2.2008,5.1552 1.4353,7.7c-1.118,3.714 -5.9075,4.5606 -9.7804,4.737c-1.0072,-2.2123 -0.4683,-4.7722 -0.4482,-7.2012c0.0201,-2.4289 -0.8763,-5.2962 -3.2131,-5.9513c-4.6737,-1.3052 -7.8969,7.4127 -12.4899,5.8405c-3.5002,-1.2044 -2.5937,-6.5511 -4.6284,-9.6402c-1.6065,-2.449 -4.8297,-3.1344 -7.3277,-4.6663c-5.3233,-3.2705 -5.1622,-8.5013 -7.635,-13.4499c-2.6088,-5.2106 -8.0832,-3.6786 -12.8374,-0.6148z" fill="#575a89" fill-opacity="1"></path></g><g><title>Vector</title><path d="M234.15008,234.39742v0l-3.84266,1.34043v0c0,0 1.51087,22.73725 -3.52538,29.25805c-5.03625,6.5208 16.53906,22.7322 16.53906,22.7322v0c0,0 29.5729,-0.1663 30.4089,-2.5197c0.836,-2.3533 -1.5109,-42.1283 -1.5109,-42.1283v0c0,0 -15.8743,-6.18824 -14.5397,-16.0501c0,0 -4.8448,23.2361 -12.0265,22.2333c-7.1817,-1.0028 -15.33541,-7.0046 -11.50282,-14.86588z" fill="#e8f5ff" fill-opacity="1"></path></g><g opacity="0.1"><title>Vector</title><path d="M246.958,256.3046c5.599,0 10.138,-4.1536 10.138,-9.27728c0,-5.12372 -4.539,-9.27732 -10.138,-9.27732c-5.59907,0 -10.138,4.1536 -10.138,9.27732c0,5.12368 4.53893,9.27728 10.138,9.27728z" fill="#000000" fill-opacity="1"></path></g><g><title>Vector</title><path d="M258.0425,235.0747v0c0,0 -2.0145,-61.5195 -19.5508,-47.81268c-17.53619,13.70678 -17.70744,30.09958 -14.3684,34.94228c3.33903,4.8428 14.0461,29.0868 14.0461,29.0868c1.6748,0.9712 3.5558,1.5316 5.4888,1.6352c1.933,0.1036 3.863,-0.2525 5.6319,-1.0392c1.7689,-0.7867 3.3264,-1.9815 4.5448,-3.4865c1.2185,-1.5051 2.0632,-3.2776 2.465,-5.1724z" fill="#ffb0b1" fill-opacity="1"></path></g><g opacity="0.1"><title>Vector</title><path d="M367.44,79.23647c-0.082,-0.27029 -0.239,-0.51158 -0.453,-0.69542c-0.866,-0.79117 -2.73,-1.06833 -5.54,-0.82644l0.116,1.33036c3.747,-0.32251 4.487,0.42331 4.583,0.54929v0.12598v0l0.116,0.1663c0.467,0.62826 0.798,1.34723 0.971,2.11086c0.174,0.76363 0.186,1.55509 0.036,2.3237c-0.821,4.107 -5.862,7.3775 -5.913,7.4128l-0.12,0.0705v0l-0.076,0.1159c-2.176,3.2302 -14.479,12.3462 -17.697,14.7046l-0.282,-0.3225c-1.441,1.2498 -14.1019,12.3412 -14.7868,16.5893c-0.4432,2.6658 -3.4448,3.6988 -4.5326,3.9861c-1.1483,-0.8718 -4.8751,-3.84 -6.8141,-7.1659c-1.8181,-3.1294 5.4996,-9.237 6.1442,-11.6205l-1.0072,-1.0331c-0.1058,0.383 -9.5034,9.1715 -6.8896,13.6615c2.0951,3.6031 5.9226,6.6871 7.2623,7.705c-0.4281,3.8904 -3.0923,26.7334 -7.1867,32.1456c-5.0866,6.7274 -9.3624,40.6316 -8.889,52.4686c0.418,10.517 -2.3268,30.382 -11.4928,38.914c-1.5869,1.541 -3.5012,2.705 -5.6002,3.403c-2.099,0.698 -4.3285,0.913 -6.522,0.628h-0.1108v0h-0.1108c-0.131,0 -13.4266,1.361 -24.597,-8.063c-9.1408,-7.695 -14.3181,-20.253 -15.3959,-37.336h-0.2216v0l-0.0906,-4.974c2.4784,-0.387 4.7104,-1.72 6.227,-3.719c1.5167,-1.999 2.1999,-4.509 1.9061,-7.001c-0.2938,-2.493 -1.5418,-4.775 -3.4816,-6.366c-1.9398,-1.591 -4.4206,-2.368 -6.92096,-2.168c-2.50039,0.201 -4.82578,1.363 -6.48759,3.243c-1.6618,1.88 -2.53065,4.332 -2.42397,6.839c0.10668,2.508 1.18058,4.877 2.99605,6.609c1.81547,1.732 4.23118,2.692 6.73955,2.679h0.11079v0l0.09065,4.944v0l-0.4432,0.03c1.10798,17.638 6.54708,30.684 16.11598,38.742c7.2731,6.03 16.5632,9.073 25.9921,8.511c0.6691,0.074 1.3415,0.111 2.0145,0.111c4.3219,0.023 8.4804,-1.651 11.5834,-4.661c9.6545,-8.995 12.5906,-29.591 12.1323,-40.465c-0.5036,-12.543 3.9837,-45.228 8.4861,-51.1794c4.4118,-5.8405 7.086,-28.5979 7.5544,-33.0072c1.5965,-0.4485 5.2075,-1.8645 5.8219,-5.5432c0.4432,-2.6608 8.8987,-10.8597 14.1017,-15.4l-0.156,-0.1814c2.8,-2.046 11.508,-8.4963 15.824,-12.6386c1.339,-1.285 2.669,-2.57 4.059,-3.7945c1.672,-1.4816 3.797,-3.83492 4.356,-6.6166c0.191,-0.91822 0.192,-1.86574 0.003,-2.78433c-0.189,-0.91859 -0.564,-1.78885 -1.101,-2.5573z" fill="#000000" fill-opacity="1"></path></g><g><title>Vector</title><path d="M322.38812,128.1093c-0.21153,-0.1462 -5.22764,-3.7392 -7.74073,-8.0629c-2.60878,-4.48996 6.78887,-13.27341 6.8896,-13.6564l1.00725,1.03306c-0.63961,2.37854 -7.95729,8.49117 -6.1392,11.61554c2.2915,3.9457 7.11622,7.3976 7.16659,7.4329z" fill="#353146" fill-opacity="1"></path></g><g><title>Vector</title><path d="M342.80566,107.6028v0l-0.78565,-1.0835c0.16116,-0.1159 15.98,-11.5651 18.473,-15.269l0.0806,-0.1108v0l0.1158,-0.0756c0.0504,-0.0353 5.0917,-3.3008 5.9126,-7.41281c0.1514,-0.76774 0.14,-1.55874 -0.0336,-2.32178c-0.1735,-0.76305 -0.5052,-1.48112 -0.9737,-2.10774l-0.1158,-0.17133v0v-0.12095c-0.1007,-0.13102 -0.8411,-0.87179 -4.5881,-0.54928l-0.1158,-1.3354c2.8153,-0.24189 4.6737,0.03527 5.5399,0.82644c0.2156,0.18566 0.3745,0.42846 0.4583,0.70046c0.5446,0.76618 0.9265,1.63587 1.1223,2.55543c0.1957,0.91956 0.2011,1.8695 0.0159,2.79124c-0.559,2.78672 -2.6793,5.14002 -4.3564,6.61652c-1.3849,1.2246 -2.7196,2.5197 -4.0542,3.7946c-5.0614,4.8528 -16.14116,12.8754 -16.69514,13.2735z" fill="#e8f5ff" fill-opacity="1"></path></g><g><title>Vector</title><path d="M241.68941,203.86069v0l-1.3344,0.02447v0l0.14868,8.11694v0l1.3344,-0.02447v0z" fill="#e8f5ff" fill-opacity="1"></path></g><g><title>Vector</title><path d="M240.24517,205.092c5.38213,0 9.74513,-4.3657 9.74513,-9.751c0,-5.38533 -4.363,-9.751 -9.74513,-9.751c-5.38211,0 -9.74517,4.36567 -9.74517,9.751c0,5.3853 4.36306,9.751 9.74517,9.751z" fill="#587eec" fill-opacity="1"></path></g><g><title>Vector</title><path d="M240.24327,203.4362c4.46983,0 8.09323,-3.6256 8.09323,-8.09808c0,-4.47247 -3.6234,-8.09812 -8.09323,-8.09812c-4.46979,0 -8.09327,3.62565 -8.09327,8.09812c0,4.47248 3.62348,8.09808 8.09327,8.09808z" fill="#e8f5ff" fill-opacity="1"></path></g><g><title>Vector</title><path d="M284.1426,257.418c-0.6729,0.001 -1.3454,-0.034 -2.0145,-0.106c-9.4282,0.556 -18.7163,-2.486 -25.9921,-8.511c-9.56887,-8.063 -14.99795,-21.095 -16.116,-38.747l2.0145,-0.126c1.07776,17.083 6.25504,29.646 15.4009,37.336c11.1704,9.398 24.4611,8.063 24.592,8.063h0.1108v0h0.1108c2.1943,0.283 4.424,0.067 6.5236,-0.631c2.0996,-0.698 4.015,-1.86 5.6037,-3.401c9.1609,-8.531 11.9057,-28.396 11.4877,-38.913c-0.5036,-11.8474 3.7721,-45.7517 8.8638,-52.474c4.4571,-5.891 7.222,-32.4429 7.2522,-32.71l0.0755,-0.7559v0l0.7454,-0.131c0.0453,0 4.3967,-0.8264 4.9406,-4.0818c0.7051,-4.2431 13.3465,-15.33452 14.7815,-16.5893l1.314,1.51178c-5.2223,4.53535 -13.6781,12.73932 -14.1012,15.40502c-0.6144,3.6888 -4.2254,5.0998 -5.8169,5.5433c-0.5036,4.4144 -3.1577,27.1667 -7.5543,33.0072c-4.5024,5.9514 -8.9897,38.6361 -8.4861,51.1787c0.4331,10.875 -2.4728,31.475 -12.1273,40.466c-3.1088,3.017 -7.2774,4.693 -11.6086,4.666z" fill="#353146" fill-opacity="1"></path></g><g opacity="0.1"><title>Group</title><g opacity="0.010000000000000002"><title>Vector</title><path d="M366.1,51.63188c0.82595,-3.0538 1.82312,-6.12776 2.51813,-9.22188" fill="#000000" fill-opacity="1"></path></g><g opacity="0.010000000000000002"><title>Vector</title><path d="M357.6661,75.6246c-1.0072,-2.2122 -0.4684,-4.7722 -0.4482,-7.2011c0.0201,-2.4289 -0.8763,-5.2711 -3.2131,-5.9514c-4.6737,-1.3052 -7.8969,7.4178 -12.4899,5.8405c-3.5254,-1.2044 -2.5937,-6.551 -4.6284,-9.6401c-1.6065,-2.4491 -4.8247,-3.1344 -7.3227,-4.6664c-5.3284,-3.2705 -5.1672,-8.50124 -7.6349,-13.44981c-2.5937,-5.19045 -8.0581,-3.65852 -12.8123,-0.59464c-3.611,2.32815 -6.7183,5.44746 -10.5761,7.30695c-3.339,1.6075 -7.0911,2.1921 -10.7927,2.2778c-4.5074,0.1058 -9.41277,-0.6955 -12.51007,-3.97099c-2.38718,-2.51964 -3.24837,-6.21343 -2.75481,-9.67541c-0.08562,0.23685 -0.16118,0.47369 -0.23672,0.71054c-1.2087,3.96591 -0.5036,8.62723 2.32174,11.64076c3.0973,3.2755 8.00257,4.0717 12.51007,3.9709c3.7067,-0.0857 7.4536,-0.6702 10.7977,-2.2777c3.8678,-1.8646 6.9752,-4.97885 10.5761,-7.30699c4.7543,-3.06388 10.2236,-4.59582 12.8123,0.59464c2.4677,4.94855 2.3116,10.17935 7.6349,13.44985c2.5182,1.5118 5.7162,2.2173 7.3278,4.6663c2.0145,3.0992 1.1231,8.4358 4.6283,9.6402c4.588,1.5722 7.8112,-7.1457 12.4849,-5.8405c2.3368,0.6551 3.2383,3.5274 3.2131,5.9513c-0.0252,2.4239 -0.5489,4.9889 0.4482,7.2012c3.8729,-0.1764 8.6624,-1.0079 9.7855,-4.737c0.1546,-0.5351 0.2259,-1.0909 0.2115,-1.6478c-1.6368,2.827 -5.8471,3.5527 -9.3322,3.7089z" fill="#000000" fill-opacity="1"></path></g></g><g opacity="0.1"><title>Vector</title><path d="M448.6927,199.7974v0l5.8471,6.1882v0c0,0 4.6787,34.1008 7.0155,37.2904c2.3368,3.19 7.8567,15.879 2.6743,25.408c0,0 -1.6721,5.186 -0.6698,7.358c1.0022,2.172 -7.5142,13.041 -7.5142,13.041v0c0,0 -11.1956,10.028 -13.5374,11.535c-2.3419,1.507 -14.7008,13.541 -18.8759,13.707c-4.175,0.166 -5.5399,5.352 -5.5399,5.352v0l-23.5595,0.836v0c0,0 -13.0137,-0.68 -15.8441,1.159c0,0 1.5109,-19.895 -13.0288,-32.936l18.5435,-6.688v0c0,0 7.0205,-3.023 9.1912,-6.183c1.3655,-1.937 3.3026,-3.398 5.5398,-4.177c0,0 5.1773,-3.679 5.3435,-5.685c0.1662,-2.005 6.3306,-4.464 6.3306,-4.464v0l-3.4901,-29.8077v0l1.8382,-49.4857v0c0,0 5.8471,-41.46316 18.2111,-39.11989c12.364,2.34326 21.5249,56.67169 21.5249,56.67169v0z" fill="#000000" fill-opacity="1"></path></g><g><title>Vector</title><path d="M450.7027,199.7974v0l5.8471,6.1882v0c0,0 4.6787,34.1008 7.0155,37.2904c2.3368,3.19 7.8567,15.879 2.6742,25.408c0,0 -1.6669,5.186 -0.6647,7.358c1.0022,2.172 -7.5192,13.041 -7.5192,13.041v0c0,0 -11.1956,10.028 -13.5374,11.535c-2.3419,1.507 -14.7008,13.541 -18.8759,13.707c-4.1751,0.166 -5.5399,5.352 -5.5399,5.352v0l-23.5596,0.836v0c0,0 -13.0237,-0.68 -15.844,1.159c0,0 1.5109,-19.895 -13.0288,-32.936l18.5435,-6.688v0c0,0 7.0205,-3.023 9.1912,-6.183c1.3655,-1.937 3.3026,-3.398 5.5398,-4.177c0,0 5.1773,-3.679 5.3435,-5.685c0.1662,-2.005 6.3306,-4.464 6.3306,-4.464v0l-3.4902,-29.8077v0l1.8383,-49.4857v0c0,0 5.8471,-41.46316 18.2111,-39.11989c12.364,2.34326 21.5249,56.67169 21.5249,56.67169v0z" fill="#e8f5ff" fill-opacity="1"></path></g><g opacity="0.1"><title>Vector</title><path d="M428.97,249.78726c0,0 17.2088,-4.53533 21.7213,1.00785" fill="#000000" fill-opacity="1"></path></g><g opacity="0.1"><title>Vector</title><path d="M424.96,257.39c5.8471,4.09692 23.892,4.26323 23.892,4.26323" fill="#000000" fill-opacity="1"></path></g><g opacity="0.1"><title>Vector</title><path d="M433.81,277.87c0.50363,0.1663 12.4043,12.8754 17.4003,9.03039" fill="#000000" fill-opacity="1"></path></g><g opacity="0.1"><title>Vector</title><path d="M273.54,171.21v0c0,0 3.49516,24.0777 1.77277,33.8841c-1.7224,9.8064 4.56283,21.9561 4.56283,21.9561v0z" fill="#000000" fill-opacity="1"></path></g><g><title>Vector</title><path d="M196.164,181.00304c-4.029,3.15962 -6.9702,10.63786 -9.1005,18.85696c-3.7168,14.3367 -4.9305,30.9613 -4.9305,30.9613v0c0,0 -32.08097,-7.3573 -29.74415,-10.6984c1.47059,-2.1013 -0.50362,-17.9348 -2.15047,-29.4142c-0.98207,-6.78289 -1.85838,-12.04892 -1.85838,-12.04892v0c0,0 58.8133,-6.35453 47.784,2.34326z" fill="#ffb0b1" fill-opacity="1"></path></g><g opacity="0.1"><title>Vector</title><path d="M196.164,180.33087c-4.029,3.16467 -6.9702,10.63793 -9.1005,18.85703c-6.3918,1.942 -13.1896,2.1171 -19.6728,0.5069c-6.4832,-1.6102 -12.4101,-4.9459 -17.15232,-9.6532c-0.98207,-6.78794 -1.85838,-12.05399 -1.85838,-12.05399v0c0,0 58.8133,-6.34949 47.784,2.34326z" fill="#000000" fill-opacity="1"></path></g><g><title>Vector</title><path d="M213.4042,162.3154c0.0034,8.7649 -3.0923,17.2484 -8.7391,23.949c-5.6468,6.7007 -13.4806,11.1865 -22.115,12.6635c-8.6344,1.477 -17.5126,-0.1501 -25.0634,-4.5932c-7.5507,-4.4431 -13.28713,-11.4158 -16.19398,-19.684c-2.90685,-8.2683 -2.79669,-17.2989 0.31098,-25.4937c3.10767,-8.1947 9.0125,-15.02527 16.6693,-19.28265c7.6569,-4.25739 16.5722,-5.66712 25.168,-3.97971c8.5957,1.68742 16.3178,6.36318 21.7995,13.19976c5.2824,6.5855 8.1621,14.7767 8.1637,23.221z" fill="#ffb0b1" fill-opacity="1"></path></g><g opacity="0.1"><title>Vector</title><path d="M242.6593,394.405v0h-10.57618v0l-0.89142,-18.6907v0l-0.93169,-19.34574v0c0,0 2.40229,-0.35777 6.22985,-0.89193l1.5461,-0.20663v0h0.12591c0.83602,3.9256 1.66196,7.95703 2.45774,11.9834c1.3245,7.148 2.0138,14.3993 2.0598,21.6689c0,0.5039 0,1.0079 0,1.4816c0.0302,1.3454 0,2.6909 -0.0201,4.0011z" fill="#000000" fill-opacity="1"></path></g><g><title>Vector</title><path d="M240.625,394.41v0h-132.635c0.57413,-1.305 0.95689,-2.096 0.95689,-2.096v0c0,0 10.61142,-46.452 16.00522,-66.105c0.0016,-0.017 0.0016,-0.034 0,-0.051c0.6739,-2.67 1.4875,-5.302 2.4375,-7.886v0c0.0614,-0.176 0.1407,-0.345 0.2367,-0.504c2.6693,-4.3441 6.0133,-9.0256 1.3347,-15.7127c-4.6787,-6.6871 -3.0218,-36.1115 -3.0218,-36.1115v0c0,0 5.6809,-25.0804 11.6942,-38.4546c0.9126,-2.07166 2.2077,-3.95232 3.8175,-5.54325c0.5233,-0.51233 1.082,-0.9872 1.672,-1.42107v0c0.4485,-0.33727 0.916,-0.64854 1.4001,-0.93227l0.0957,-0.06047c2.526,-1.43307 5.3311,-2.3045 8.2242,-2.55492c2.055,-0.21494 4.1294,-0.15733 6.1694,0.17133c9.7502,1.43115 17.5564,3.82481 23.761,6.55105c16.8161,7.39259 21.9077,17.29989 22.0085,17.50649l0.0402,0.0856c0.6749,1.5773 10.546,24.637 14.102,35.3959c0.921,2.8018 1.425,4.7722 1.223,5.3114c-1.007,2.6708 7.686,36.106 7.686,36.106v0c0,0 4.029,16.126 8.058,35.028c0.176,0.787 0.342,1.573 0.503,2.369c0.72,3.432 1.436,6.929 2.126,10.421c1.336,7.197 2.026,14.5 2.059,21.82c0.074,2.281 0.089,4.504 0.046,6.667z" fill="#eb5569" fill-opacity="1"></path></g><g opacity="0.1"><title>Vector</title><path d="M152.05108,205.47063v0c0,0 -9.15088,-3.52749 -9.04008,1.82422c0.1108,5.35171 2.23106,7.91165 1.56124,8.69275c-0.66982,0.7811 0.33239,5.4626 0.33239,5.4626v0c0,0 12.36397,0 18.04487,2.5599c5.6809,2.56 26.6217,7.69 29.2959,9.2521c2.6743,1.5622 12.5907,8.5668 12.5907,8.5668v0l0.8914,-13.2634v0c0,0 -10.2488,-8.471 -27.0649,-12.8148c-16.816,-4.3439 -26.61152,-10.28017 -26.61152,-10.28017z" fill="#000000" fill-opacity="1"></path></g><g><title>Vector</title><path d="M152.05108,204.80063v0c0,0 -9.15088,-3.52749 -9.04008,1.82422c0.1108,5.35171 2.23106,7.91165 1.56124,8.69275c-0.66982,0.7811 0.33239,5.4626 0.33239,5.4626v0c0,0 12.36397,0 18.04487,2.565c5.6809,2.565 26.6217,7.6899 29.2959,9.247c2.6743,1.5572 12.5906,8.5668 12.5906,8.5668v0l0.9015,-13.2231v0c0,0 -10.2487,-8.471 -27.0648,-12.8148c-16.816,-4.34388 -26.62162,-10.32047 -26.62162,-10.32047z" fill="#eb5569" fill-opacity="1"></path></g><g opacity="0.1"><title>Vector</title><path d="M179.68,236.72c0,0 17.4859,18.9426 16.5945,24.1885" fill="#000000" fill-opacity="1"></path></g><g><title>Vector</title></g><g opacity="0.1"><title>Vector</title><path d="M151.2701,305.15v0c0,0 -12.81725,11.8171 -16.59444,12.4874c-3.77718,0.6702 2.89584,2.8975 7.23709,1.1187c4.34125,-1.7789 13.59785,-6.46037 13.59785,-6.46037v0z" fill="#000000" fill-opacity="1"></path></g><g><title>Vector</title><path d="M245.8384,394.4043v0h-29.8902c-4.1801,-3.6283 -8.1335,-6.9895 -10.6517,-9.0102c-4.02897,-3.2352 -6.93488,-7.9974 -8.78822,-11.8272c-0.41801,-0.8718 -0.78062,-1.6882 -1.08784,-2.429c-0.5501,-1.276 -1.03423,-2.5796 -1.45044,-3.9054l22.1343,-13.1525c1.2233,1.04086 2.3727,2.16566 3.4398,3.36623l0.2669,0.30739c1.2289,1.45131 2.3117,3.09916 2.4074,4.44969c0.1107,1.57225 4.4822,7.65469 8.9494,13.49519c4.5326,5.9413 9.176,11.6205 9.4832,12.0035c0,0 0.7655,1.0432 2.0145,2.6457c0.8814,1.159 1.9692,2.5499 3.1729,4.0566z" fill="#ffb0b1" fill-opacity="1"></path></g><g opacity="0.1"><title>Vector</title><path d="M205.2469,139.0959c-1.0626,2.3987 -2.0145,4.8881 -2.1555,7.5589c-0.3978,7.7101 0.2468,24.9495 -8.2846,28.8196c-4.2254,1.9049 -8.748,-2.2777 -13.3813,-2.3785c-3.334,-0.0705 -6.391,2.0459 -8.4257,4.6916c-2.0346,2.6456 -3.2987,5.785 -4.7743,8.7784c-1.3433,2.7169 -2.8905,5.328 -4.6284,7.8109c-0.5194,0.7598 -1.0916,1.4822 -1.7123,2.1618c-5.2021,-2.1964 -9.8346,-5.5521 -13.54428,-9.8112c-3.70972,-4.2592 -6.39886,-9.3095 -7.86249,-14.7661c-1.46363,-5.4565 -1.66313,-11.1754 -0.58331,-16.7208c1.07982,-5.5454 3.41048,-10.7711 6.81437,-15.2787c3.40391,-4.5076 7.79121,-8.17829 12.82761,-10.73233c5.0364,-2.55404 10.589,-3.92403 16.2347,-4.0056c5.6458,-0.08157 11.2356,1.12743 16.3436,3.53491c5.108,2.40747 9.5994,5.94987 13.1319,10.35732z" fill="#000000" fill-opacity="1"></path></g><g><title>Vector</title><path d="M202.415,145.2949c-0.403,7.7101 0.246,24.9494 -8.2901,28.8145c-4.2254,1.9049 -8.748,-2.2727 -13.3814,-2.3734c-3.334,-0.0756 -6.3859,2.0459 -8.4256,4.6865c-2.0397,2.6406 -3.2937,5.7851 -4.7744,8.7834c-1.3436,2.7167 -2.8908,5.3278 -4.6283,7.8109c-1.0375,1.4715 -2.1857,2.948 -3.7822,3.7744c-2.78,1.4513 -6.1493,0.635 -9.1308,-0.2973c-3.8678,-1.2195 -7.6786,-2.5935 -11.4322,-4.1221c0.0861,-0.5671 0.1299,-1.1398 0.1309,-1.7134c-0.1108,0.2117 -0.2317,0.4082 -0.3525,0.6199l-0.2367,0.4132c-0.4281,0.7559 -0.8461,1.5118 -1.2289,2.2878c-0.146,0.2973 -0.2871,0.6047 -0.413,0.9121c-0.5065,1.144 -0.8245,2.3624 -0.9417,3.6081c-0.2569,3.3612 1.4,6.5511 2.8706,9.5747c5.6557,11.6958 9.1509,25.3728 4.8953,37.6438c-1.8433,5.336 -5.0363,10.078 -7.3681,15.233c-4.0761,9.131 -5.276,19.287 -3.4397,29.117c1.1633,6.108 3.4951,12.155 2.921,18.348c-1.0073,10.658 -10.1934,18.59 -19.3946,24.043c-4.9708,2.932 -11.05461,5.543 -16.3326,3.225c3.36422,-3.931 4.23046,-9.368 4.95568,-14.498c1.98428,-13.993 3.97361,-27.992 5.96792,-41.998c0.7958,-5.573 1.5898,-11.146 2.3822,-16.72c1.4806,-10.472 2.9815,-21.059 2.0548,-31.596c-0.6749,-7.766 -2.5786,-16.01 0.7856,-23.0397c1.7778,-3.724 4.9456,-6.8081 5.9327,-10.8193c0.8109,-3.2604 0.0554,-6.7275 0.5893,-10.0484c0.2922,-1.5109 0.7868,-2.9754 1.4706,-4.3539c0.8706,-1.8706 2.0071,-3.6052 3.3743,-5.1501c-1.3498,-0.3931 -2.6088,-0.9323 -3.3743,-2.0611c2.1656,-1.411 2.4929,-4.5908 1.5108,-6.9794c-0.982,-2.3886 -2.9462,-4.2078 -4.7139,-6.0925c-1.7677,-1.8847 -3.47,-4.0818 -3.6916,-6.6518c-0.428,-4.8932 4.4571,-8.6827 5.3183,-13.5103c0.8713,-4.9133 -2.5735,-9.6905 -2.2965,-14.6643c0.3223,-6.0119 5.8421,-10.38091 11.2913,-12.91567c8.2231,-3.80894 17.3068,-5.37364 26.3295,-4.53535c7.3429,0.69542 14.449,2.96814 21.7717,3.85002c4.4168,0.50392 8.8941,0.55431 13.2806,1.33036c4.3866,0.77605 8.783,2.41381 11.87,5.63394c8.139,8.4911 -1.611,15.4806 -2.074,24.4304z" fill="#575a89" fill-opacity="1"></path></g><g opacity="0.1"><title>Vector</title><path d="M195.6101,373.571c-2.5685,-1.114 -7.2421,-0.448 -15.2649,-2.892c-8.0227,-2.444 -9.5689,-13.491 -9.5689,-13.491v0v-0.035c-0.0957,-0.252 -0.841,-1.895 -5.8874,-7.649c-5.5751,-6.355 -17.6268,-38.4501 -17.6268,-38.4501v0c0,0 -10.68698,-11.4845 -10.34955,-15.7175c0.33743,-4.233 -1.89866,-15.4958 -1.67707,-28.094c0.22159,-12.59814 24.05822,-20.95326 24.05822,-20.95326c45.8953,-8.13843 35.0875,44.80416 33.8637,48.81546c-1.2238,4.0112 5.1269,14.8457 5.1269,14.8457c-0.8964,4.7168 3.6765,12.0187 3.6765,12.0187v0c0,0 1.108,6.4603 1.3346,8.9144c0.0126,0.1134 0.0379,0.225 0.0756,0.3327c0.7353,2.313 6.7284,4.4093 9.1659,5.6842c2.5635,1.3405 10.8078,13.0417 10.8078,13.0417c1.7778,8.592 -25.1762,24.758 -27.7346,23.629z" fill="#000000" fill-opacity="1"></path></g><g><title>Vector</title><path d="M196.9451,371.556c-2.5634,-1.119 -7.2421,-0.449 -15.2598,-2.898c-8.0178,-2.449 -9.5689,-13.485 -9.5689,-13.485v0v-0.035c-0.0907,-0.257 -0.8411,-1.895 -5.8874,-7.65c-5.5751,-6.3541 -17.6269,-38.4543 -17.6269,-38.4543v0c0,0 -10.68692,-11.4795 -10.35453,-15.7125c0.33239,-4.233 -1.89362,-15.4957 -1.67202,-28.0838c0.2216,-12.58816 24.04305,-20.93826 24.04305,-20.93826c45.8954,-8.13843 35.0876,44.80426 33.8638,48.81546c-1.2238,4.0113 5.1269,14.8457 5.1269,14.8457c-0.8964,4.7168 3.6765,12.0187 3.6765,12.0187v0c0,0 1.1079,6.4604 1.3396,8.9145c0.0085,0.1135 0.0322,0.2254 0.0705,0.3326c0.7353,2.313 6.7285,4.4094 9.171,5.6843c2.5585,1.3354 10.8078,13.0416 10.8078,13.0416c1.7879,8.577 -25.1661,24.743 -27.7296,23.604z" fill="#eb5569" fill-opacity="1"></path></g><g opacity="0.1"><title>Vector</title><path d="M161.52,271.94c0,0 20.0493,21.165 25.282,21.165" fill="#000000" fill-opacity="1"></path></g><g><title>Vector</title><path d="M196.9387,371.56c-2.5634,-1.1187 -7.2421,-0.4485 -15.25982,-2.8976c-8.01771,-2.449 -9.56888,-13.4851 -9.56888,-13.4851v0v-0.0352c5.31325,-3.5275 18.7701,-13.4902 24.0733,-17.13355c3.7319,-2.55491 6.7788,-6.30915 8.5616,-8.79855c0.7353,2.31303 6.7285,4.40935 9.1711,5.68428c2.5584,1.33541 10.8078,13.04162 10.8078,13.04162c1.7324,8.597 -25.2216,24.763 -27.7851,23.6241z" fill="#ff748e" fill-opacity="1"></path></g><g opacity="0.1"><title>Group</title><g opacity="0.010000000000000002"><title>Vector</title><path d="M123.85,175.4585c0.02518,0.04031 0.06043,0.07558 0.09065,0.11589c0.15109,-0.19149 0.30721,-0.38298 0.46837,-0.56439c-0.17164,0.16698 -0.35882,0.31716 -0.55902,0.4485z" fill="#000000" fill-opacity="1"></path></g><g opacity="0.010000000000000002"><title>Vector</title><path d="M135.5331,198.5519c0.2115,-2.79676 1.7073,-5.26097 3.1073,-7.72014c-0.9166,-0.35275 -1.8331,-0.71053 -2.7397,-1.08344c0.0864,-0.56535 0.1301,-1.1364 0.131,-1.70832c-1.4152,2.51964 -2.9563,4.99897 -3.1729,7.83608c-0.2568,3.36622 1.4001,6.55102 2.8707,9.57462c5.6607,11.6911 9.1509,25.3677 4.8952,37.6434c-1.8483,5.3316 -5.0362,10.0785 -7.368,15.2337c-4.0747,9.1293 -5.2728,19.2842 -3.4347,29.1119c1.1533,6.1123 3.4901,12.1543 2.916,18.3483c-1.0073,10.658 -10.1884,18.59 -19.3946,24.037c-3.76212,2.227 -8.15878,4.268 -12.36405,4.122c-0.38926,0.627 -0.82352,1.225 -1.29935,1.789c5.28303,2.333 11.3618,-0.292 16.3326,-3.235c9.2113,-5.442 18.4125,-13.354 19.4198,-24.032c0.5741,-6.194 -1.7627,-12.236 -2.9211,-18.348c-1.8386,-9.8272 -0.6441,-19.9812 3.4247,-29.1123c2.3167,-5.1501 5.5399,-9.9021 7.368,-15.2337c4.2557,-12.2757 0.7605,-25.9523 -4.8952,-37.6434c-1.4656,-3.0437 -3.1326,-6.2134 -2.8757,-9.5797z" fill="#000000" fill-opacity="1"></path></g><g opacity="0.010000000000000002"><title>Vector</title><path d="M204.4795,120.92101c-0.4954,-0.50855 -1.0273,-0.98015 -1.5915,-1.41101c6.1039,7.92174 -2.7095,14.6542 -3.1477,23.1807c-0.3928,7.71 0.2518,24.9544 -8.2846,28.8145c-4.2204,1.9099 -8.748,-2.2727 -13.3763,-2.3735c-3.339,-0.0705 -6.391,2.051 -8.4307,4.6916c-2.0397,2.6406 -3.2937,5.7851 -4.7693,8.7784c-1.3462,2.7164 -2.895,5.3274 -4.6334,7.8109c-1.0072,1.4765 -2.1857,2.9479 -3.7872,3.7794c-2.77,1.4463 -6.1392,0.635 -9.12572,-0.3023c-2.90424,-0.9138 -5.78163,-1.9217 -8.63215,-3.0236c-0.00588,0.5249 -0.04963,1.0486 -0.13093,1.5672c3.75705,1.532 7.56949,2.906 11.4373,4.1221c2.9815,0.9374 6.3507,1.7487 9.1257,0.3024c1.5965,-0.8315 2.7548,-2.308 3.7873,-3.7845c1.7396,-2.4799 3.2869,-5.0895 4.6283,-7.8058c1.4807,-2.9934 2.7297,-6.1429 4.7744,-8.7835c2.0447,-2.6406 5.0916,-4.7571 8.4256,-4.6865c4.6334,0.1008 9.161,4.2834 13.3813,2.3735c8.5365,-3.8601 7.8868,-21.1045 8.2847,-28.8146c0.4633,-8.9648 10.2135,-15.94926 2.0649,-24.43539z" fill="#000000" fill-opacity="1"></path></g></g><g opacity="0.1"><title>Vector</title><path d="M138.1229,191.6955c-0.4281,0.7559 -0.8461,1.5118 -1.2289,2.2878c-0.146,0.2974 -0.287,0.6048 -0.4129,0.9121c-2.639,-2.6607 -9.06529,-8.98498 -12.6511,-10.94526c0.87186,-1.86988 2.00828,-3.6044 3.37428,-5.15014c0,0 8.54652,4.52023 10.91862,12.8955z" fill="#000000" fill-opacity="1"></path></g><g><title>Vector</title><path d="M138.3596,191.2877c-1.9793,-8.96487 -11.15532,-13.8177 -11.15532,-13.8177c-1.36712,1.54489 -2.50365,3.27957 -3.37428,5.15014c3.78223,2.07114 10.7524,9.01526 13.064,11.36856z" fill="#eb5569" fill-opacity="1"></path></g></g></g></svg>