<?xml version="1.0" encoding="utf-8"?><svg xmlns="http://www.w3.org/2000/svg" xmlns:xlink="http://www.w3.org/1999/xlink"><symbol viewBox="0 0 68 73" fill="none" id="doctor" xmlns="http://www.w3.org/2000/svg"><path d="M33.725.638c-5.838 0-9.332.887-11.553 1.992-1.112.553-1.901 1.135-2.432 1.73-.534.596-.87 1.47-.87 1.47a2.761 2.761 0 00-.173.693l-1.479 18.953c-.02.116.02.304 0 .432l-.172 1.905a2.764 2.764 0 000 .518c0 9.138 7.506 16.615 16.679 16.615 9.173 0 16.679-7.477 16.679-16.615v-.432-.086l-1.651-21.29a2.761 2.761 0 00-.173-.692s-.336-.875-.87-1.47c-.53-.599-1.32-1.18-2.432-1.731C43.057 1.522 39.563.638 33.725.638zm0 44.308C15.378 44.946.367 53.547.367 61.301v11.337h66.716V61.301c0-7.366-13.571-15.48-30.664-16.269a39.879 39.879 0 00-2.694-.086zm0-38.77c5.282 0 7.92.832 9.034 1.385.373.186.417.258.523.347L44.41 22.1c-2.558.155-6.044.692-10.686.692s-8.126-.537-10.686-.692l1.129-14.192c.103-.089.15-.161.523-.347 1.114-.553 3.752-1.384 9.034-1.384zm-2.26 2.77v3.29h-3.3v4.5h3.303v3.287h4.514v-3.29h3.303v-4.497h-3.303v-3.29h-4.517zm-6.08 42.23L32.51 67.1H5.927v-5.799c0-2.063 7.088-8.105 19.459-10.124zm16.68 0c12.37 2.022 19.458 8.062 19.458 10.125V67.1H34.94l7.124-15.923z" fill="#EC5863"/></symbol><symbol viewBox="0 0 88 73" fill="none" id="heartbeat" xmlns="http://www.w3.org/2000/svg"><path d="M24.581.968c-6.376 0-12.492 2.502-17 6.955A23.602 23.602 0 00.539 24.716c0 2.159.393 4.318.961 6.477h17.836l5.552-14.552c1.31-3.454 6.47-3.8 8.13 0l9.05 23.187 2.578-6.131c.569-1.425 2.099-2.504 3.978-2.504h38.381c.569-2.16.962-4.318.962-6.477a23.602 23.602 0 00-7.042-16.793C76.416 3.47 70.301.968 63.925.968c-8.131 0-15.3 4.015-19.672 10.104C39.882 4.982 32.713.968 24.58.968zM4.911 37.669c-1.16 0-2.272.455-3.092 1.265a4.291 4.291 0 00-1.28 3.053c0 1.145.46 2.244 1.28 3.053a4.399 4.399 0 003.091 1.265h10.666l24.306 23.748c4.37 3.886 4.37 3.886 8.742 0L72.93 46.305h10.666c1.16 0 2.271-.455 3.09-1.265a4.291 4.291 0 001.281-3.053c0-1.145-.46-2.243-1.28-3.053a4.399 4.399 0 00-3.091-1.265H50.373L46.307 47.6c-1.748 4.361-6.775 3.757-8.393.13l-8.961-23.014-4.197 10.06c-.655 1.641-2.142 2.893-4.109 2.893H4.91z" fill="#EC5863"/></symbol><symbol viewBox="0 0 65 73" fill="none" id="human" xmlns="http://www.w3.org/2000/svg"><path d="M64.481 25.61H43.053v46.8H35.91v-21.6h-7.143v21.6h-7.143v-46.8H.196v-7.2H64.48v7.2zM32.34.41c1.894 0 3.71.759 5.05 2.109a7.23 7.23 0 012.092 5.091 7.23 7.23 0 01-2.092 5.091 7.114 7.114 0 01-5.05 2.11 7.114 7.114 0 01-5.051-2.11 7.23 7.23 0 01-2.092-5.09c0-3.997 3.178-7.2 7.143-7.2z" fill="#EC5863"/></symbol><symbol fill="none" viewBox="0 0 41 40" id="logo" xmlns="http://www.w3.org/2000/svg"><path d="M14.22 4.989c1.425-.5 2.991.174 3.497 1.504.388 1.018.041 2.125-.78 2.812l.443 1.211.707.816a.738.738 0 00.651.245 8.649 8.649 0 011.961-.017.735.735 0 00.592-.2l.51-.494.375-1.094a1.717 1.717 0 01-.238-1.573 1.739 1.739 0 012.307-1.036 1.732 1.732 0 011.008 2.059c-.15.53-.529.928-.995 1.125l-.416 1.212.094.669c.033.23.17.43.369.55.67.407 1.285.904 1.825 1.478a.769.769 0 00.713.224l1.34-.269 1.513-.84a2.142 2.142 0 011.106-1.851 2.163 2.163 0 012.964.882c.509.97.19 2.19-.733 2.787-.72.466-1.6.449-2.278.051l-1.522.844-.85.903a.953.953 0 00-.223.906l.001.005c.15.553.24 1.108.277 1.659a.955.955 0 00.498.78l1.11.598 2.2.415a1.74 1.74 0 011.467-.399 1.728 1.728 0 011.358 2.129 1.744 1.744 0 01-1.899 1.28 1.733 1.733 0 01-1.314-.9l-2.214-.417-1.365.166a.723.723 0 00-.574.419 8.693 8.693 0 01-1.669 2.47.715.715 0 00-.175.676l.34 1.31.837 1.31c.922-.138 1.88.26 2.413 1.092a2.407 2.407 0 01-.723 3.319 2.449 2.449 0 01-3.355-.697 2.402 2.402 0 01-.102-2.482l-.89-1.39-1.093-.898a.597.597 0 00-.58-.098 8.656 8.656 0 01-4.359.38.594.594 0 00-.487.136l-.587.508-.436 1.072c.295.456.37 1.042.15 1.583a1.74 1.74 0 01-2.361.908 1.731 1.731 0 01-.891-2.111c.179-.522.579-.898 1.056-1.069l.483-1.188-.09-1.043a8.664 8.664 0 01-2.282-2.069l-1.49.147-1.396.688c.009.934-.473 1.822-1.319 2.252-1.195.607-2.663.07-3.278-1.2-.615-1.27-.146-2.792 1.05-3.399.893-.454 1.94-.268 2.668.387l1.316-.649.913-.977a.252.252 0 00.06-.238 8.51 8.51 0 01.044-4.607.249.249 0 00-.048-.23l-.788-.938-1.698-.889a1.74 1.74 0 01-1.51-.05 1.722 1.722 0 01-.673-2.428 1.75 1.75 0 012.24-.653c.516.25.849.717.947 1.234l1.698.888 1.208.113a.252.252 0 00.22-.092 8.601 8.601 0 011.941-1.76.734.734 0 00.333-.6l.013-1.094-.474-1.29c-1.027-.074-1.956-.694-2.324-1.661-.506-1.33.239-2.813 1.664-3.312z" fill="#EC5863"/><path d="M25.99 18.477c-.917-3.403-4.434-5.423-7.856-4.511-3.421.912-5.452 4.41-4.535 7.813.917 3.402 4.434 5.422 7.855 4.51 3.422-.912 5.453-4.41 4.536-7.813z" fill="#F58A97"/><path d="M20.948 24.41c-3.1.827-6.28-.753-7.53-3.59.035.32.095.64.18.959.918 3.402 4.435 5.422 7.856 4.51 3.422-.912 5.453-4.41 4.536-7.813a6.411 6.411 0 00-.325-.92c.342 3.079-1.616 6.029-4.717 6.855z" fill="#F07281"/><path d="M11.324 33.496a1.828 1.828 0 00-2.237-1.285 1.815 1.815 0 00-1.292 2.225 1.828 1.828 0 002.238 1.285 1.815 1.815 0 001.291-2.225zM34.11 27.938a1.207 1.207 0 00-2.33.621 1.207 1.207 0 002.33-.621zM30.843 6.002a1.778 1.778 0 00-2.177-1.25 1.766 1.766 0 00-1.256 2.165 1.778 1.778 0 002.176 1.25 1.766 1.766 0 001.257-2.165zM20.195 22.048a1.658 1.658 0 00-2.029-1.165 1.647 1.647 0 00-1.171 2.018 1.658 1.658 0 002.029 1.165 1.647 1.647 0 001.171-2.018zM24.31 19.582a1.128 1.128 0 00-2.178.58 1.128 1.128 0 002.179-.58zM19.958 17.096a.947.947 0 00-1.83.488.947.947 0 001.83-.488z" fill="#EB5569"/></symbol></svg>